<mxfile host="app.diagrams.net" agent="Mozilla/5.0 (Windows NT 10.0; Win64; x64) AppleWebKit/537.36 (KHTML, like Gecko) Chrome/136.0.0.0 Safari/537.36 Edg/136.0.0.0" version="27.0.6">
  <diagram name="Página-1" id="Af9ilRlFrQOxffST6_aq">
    <mxGraphModel dx="1162" dy="685" grid="1" gridSize="10" guides="1" tooltips="1" connect="1" arrows="1" fold="1" page="1" pageScale="1" pageWidth="827" pageHeight="1169" background="#FEFEFE" math="0" shadow="0">
      <root>
        <mxCell id="0" />
        <mxCell id="1" parent="0" />
        <mxCell id="hw99wDOu4LzE6iY33n7J-3" style="edgeStyle=orthogonalEdgeStyle;rounded=0;orthogonalLoop=1;jettySize=auto;html=1;" parent="1" source="hw99wDOu4LzE6iY33n7J-1" target="hw99wDOu4LzE6iY33n7J-2" edge="1">
          <mxGeometry relative="1" as="geometry" />
        </mxCell>
        <mxCell id="hw99wDOu4LzE6iY33n7J-4" value="&lt;span style=&quot;font-size:12.0pt;line-height:&lt;br/&gt;107%;font-family:&amp;quot;MS Gothic&amp;quot;;mso-ascii-font-family:Arial;mso-hansi-font-family:&lt;br/&gt;Arial;mso-bidi-font-family:Arial;mso-ansi-language:ES-MX;mso-fareast-language:&lt;br/&gt;EN-US;mso-bidi-language:AR-SA&quot; lang=&quot;EN-US&quot;&gt;へんか&lt;/span&gt;" style="edgeLabel;html=1;align=center;verticalAlign=middle;resizable=0;points=[];" parent="hw99wDOu4LzE6iY33n7J-3" vertex="1" connectable="0">
          <mxGeometry x="-0.1467" y="3" relative="1" as="geometry">
            <mxPoint as="offset" />
          </mxGeometry>
        </mxCell>
        <mxCell id="hw99wDOu4LzE6iY33n7J-1" value="q1" style="ellipse;whiteSpace=wrap;html=1;aspect=fixed;" parent="1" vertex="1">
          <mxGeometry x="32.5" y="150" width="40" height="40" as="geometry" />
        </mxCell>
        <mxCell id="hw99wDOu4LzE6iY33n7J-6" style="edgeStyle=orthogonalEdgeStyle;rounded=0;orthogonalLoop=1;jettySize=auto;html=1;entryX=0;entryY=0.5;entryDx=0;entryDy=0;" parent="1" source="hw99wDOu4LzE6iY33n7J-2" target="hw99wDOu4LzE6iY33n7J-5" edge="1">
          <mxGeometry relative="1" as="geometry" />
        </mxCell>
        <mxCell id="hw99wDOu4LzE6iY33n7J-7" value="(Espacio)" style="edgeLabel;html=1;align=center;verticalAlign=middle;resizable=0;points=[];" parent="hw99wDOu4LzE6iY33n7J-6" vertex="1" connectable="0">
          <mxGeometry x="-0.195" y="4" relative="1" as="geometry">
            <mxPoint as="offset" />
          </mxGeometry>
        </mxCell>
        <mxCell id="hw99wDOu4LzE6iY33n7J-2" value="q2" style="ellipse;whiteSpace=wrap;html=1;aspect=fixed;" parent="1" vertex="1">
          <mxGeometry x="182.5" y="150" width="40" height="40" as="geometry" />
        </mxCell>
        <mxCell id="hw99wDOu4LzE6iY33n7J-9" style="edgeStyle=orthogonalEdgeStyle;rounded=0;orthogonalLoop=1;jettySize=auto;html=1;" parent="1" source="hw99wDOu4LzE6iY33n7J-5" target="hw99wDOu4LzE6iY33n7J-8" edge="1">
          <mxGeometry relative="1" as="geometry" />
        </mxCell>
        <mxCell id="hw99wDOu4LzE6iY33n7J-12" value="(Nombre variable&lt;div&gt;en hiragana)&lt;/div&gt;" style="edgeLabel;html=1;align=center;verticalAlign=middle;resizable=0;points=[];" parent="hw99wDOu4LzE6iY33n7J-9" vertex="1" connectable="0">
          <mxGeometry x="-0.045" y="1" relative="1" as="geometry">
            <mxPoint as="offset" />
          </mxGeometry>
        </mxCell>
        <mxCell id="hw99wDOu4LzE6iY33n7J-5" value="q3" style="ellipse;whiteSpace=wrap;html=1;aspect=fixed;" parent="1" vertex="1">
          <mxGeometry x="302.5" y="150" width="40" height="40" as="geometry" />
        </mxCell>
        <mxCell id="hw99wDOu4LzE6iY33n7J-14" style="edgeStyle=orthogonalEdgeStyle;rounded=0;orthogonalLoop=1;jettySize=auto;html=1;" parent="1" source="hw99wDOu4LzE6iY33n7J-8" target="hw99wDOu4LzE6iY33n7J-13" edge="1">
          <mxGeometry relative="1" as="geometry" />
        </mxCell>
        <mxCell id="hw99wDOu4LzE6iY33n7J-15" value="(Espacio)" style="edgeLabel;html=1;align=center;verticalAlign=middle;resizable=0;points=[];" parent="hw99wDOu4LzE6iY33n7J-14" vertex="1" connectable="0">
          <mxGeometry x="-0.12" relative="1" as="geometry">
            <mxPoint as="offset" />
          </mxGeometry>
        </mxCell>
        <mxCell id="hw99wDOu4LzE6iY33n7J-8" value="q4" style="ellipse;whiteSpace=wrap;html=1;aspect=fixed;" parent="1" vertex="1">
          <mxGeometry x="462.5" y="150" width="40" height="40" as="geometry" />
        </mxCell>
        <mxCell id="hw99wDOu4LzE6iY33n7J-17" style="edgeStyle=orthogonalEdgeStyle;rounded=0;orthogonalLoop=1;jettySize=auto;html=1;entryX=0;entryY=0.5;entryDx=0;entryDy=0;" parent="1" source="hw99wDOu4LzE6iY33n7J-13" target="hw99wDOu4LzE6iY33n7J-16" edge="1">
          <mxGeometry relative="1" as="geometry" />
        </mxCell>
        <mxCell id="hw99wDOu4LzE6iY33n7J-18" value="=" style="edgeLabel;html=1;align=center;verticalAlign=middle;resizable=0;points=[];" parent="hw99wDOu4LzE6iY33n7J-17" vertex="1" connectable="0">
          <mxGeometry x="-0.22" y="1" relative="1" as="geometry">
            <mxPoint y="-9" as="offset" />
          </mxGeometry>
        </mxCell>
        <mxCell id="hw99wDOu4LzE6iY33n7J-13" value="q5" style="ellipse;whiteSpace=wrap;html=1;aspect=fixed;" parent="1" vertex="1">
          <mxGeometry x="582.5" y="150" width="40" height="40" as="geometry" />
        </mxCell>
        <mxCell id="hw99wDOu4LzE6iY33n7J-20" style="edgeStyle=orthogonalEdgeStyle;rounded=0;orthogonalLoop=1;jettySize=auto;html=1;entryX=0.5;entryY=0;entryDx=0;entryDy=0;" parent="1" source="hw99wDOu4LzE6iY33n7J-16" target="hw99wDOu4LzE6iY33n7J-19" edge="1">
          <mxGeometry relative="1" as="geometry" />
        </mxCell>
        <mxCell id="hw99wDOu4LzE6iY33n7J-21" value="[0-9]" style="edgeLabel;html=1;align=center;verticalAlign=middle;resizable=0;points=[];" parent="hw99wDOu4LzE6iY33n7J-20" vertex="1" connectable="0">
          <mxGeometry x="-0.115" relative="1" as="geometry">
            <mxPoint as="offset" />
          </mxGeometry>
        </mxCell>
        <mxCell id="hw99wDOu4LzE6iY33n7J-23" style="edgeStyle=orthogonalEdgeStyle;rounded=0;orthogonalLoop=1;jettySize=auto;html=1;entryX=0.5;entryY=0;entryDx=0;entryDy=0;exitX=0;exitY=1;exitDx=0;exitDy=0;" parent="1" source="hw99wDOu4LzE6iY33n7J-16" target="hw99wDOu4LzE6iY33n7J-22" edge="1">
          <mxGeometry relative="1" as="geometry">
            <Array as="points">
              <mxPoint x="708.5" y="220" />
              <mxPoint x="632.5" y="220" />
            </Array>
          </mxGeometry>
        </mxCell>
        <mxCell id="hw99wDOu4LzE6iY33n7J-24" value="&quot;" style="edgeLabel;html=1;align=center;verticalAlign=middle;resizable=0;points=[];" parent="hw99wDOu4LzE6iY33n7J-23" vertex="1" connectable="0">
          <mxGeometry x="0.3496" y="-3" relative="1" as="geometry">
            <mxPoint x="-7" as="offset" />
          </mxGeometry>
        </mxCell>
        <mxCell id="hw99wDOu4LzE6iY33n7J-40" style="edgeStyle=orthogonalEdgeStyle;rounded=0;orthogonalLoop=1;jettySize=auto;html=1;" parent="1" source="hw99wDOu4LzE6iY33n7J-16" target="hw99wDOu4LzE6iY33n7J-39" edge="1">
          <mxGeometry relative="1" as="geometry" />
        </mxCell>
        <mxCell id="hw99wDOu4LzE6iY33n7J-41" value="&lt;span style=&quot;font-size:12.0pt;line-height:&lt;br/&gt;107%;font-family:&amp;quot;MS Gothic&amp;quot;;mso-ascii-font-family:Arial;mso-hansi-font-family:&lt;br/&gt;Arial;mso-bidi-font-family:Arial;mso-ansi-language:ES-MX;mso-fareast-language:&lt;br/&gt;EN-US;mso-bidi-language:AR-SA&quot; lang=&quot;EN-US&quot;&gt;ハイ,&lt;/span&gt;&lt;div&gt;&lt;span style=&quot;font-size:12.0pt;line-height:&lt;br/&gt;107%;font-family:&amp;quot;MS Gothic&amp;quot;;mso-ascii-font-family:Arial;mso-hansi-font-family:&lt;br/&gt;Arial;mso-bidi-font-family:Arial;mso-ansi-language:ES-MX;mso-fareast-language:&lt;br/&gt;EN-US;mso-bidi-language:AR-SA&quot; lang=&quot;EN-US&quot;&gt;イイエ,&lt;/span&gt;&lt;/div&gt;&lt;div&gt;&lt;span style=&quot;font-size:12.0pt;line-height:&lt;br/&gt;107%;font-family:&amp;quot;MS Gothic&amp;quot;;mso-ascii-font-family:Arial;mso-hansi-font-family:&lt;br/&gt;Arial;mso-bidi-font-family:Arial;mso-ansi-language:ES-MX;mso-fareast-language:&lt;br/&gt;EN-US;mso-bidi-language:AR-SA&quot; lang=&quot;EN-US&quot;&gt;ナシ&lt;/span&gt;&lt;/div&gt;" style="edgeLabel;html=1;align=center;verticalAlign=middle;resizable=0;points=[];" parent="hw99wDOu4LzE6iY33n7J-40" vertex="1" connectable="0">
          <mxGeometry x="0.1542" y="-1" relative="1" as="geometry">
            <mxPoint as="offset" />
          </mxGeometry>
        </mxCell>
        <mxCell id="hw99wDOu4LzE6iY33n7J-16" value="q6" style="ellipse;whiteSpace=wrap;html=1;aspect=fixed;" parent="1" vertex="1">
          <mxGeometry x="702.5" y="150" width="40" height="40" as="geometry" />
        </mxCell>
        <mxCell id="hw99wDOu4LzE6iY33n7J-19" value="q8" style="ellipse;whiteSpace=wrap;html=1;aspect=fixed;" parent="1" vertex="1">
          <mxGeometry x="667.5" y="290" width="40" height="40" as="geometry" />
        </mxCell>
        <mxCell id="hw99wDOu4LzE6iY33n7J-22" value="q7" style="ellipse;whiteSpace=wrap;html=1;aspect=fixed;" parent="1" vertex="1">
          <mxGeometry x="612.5" y="300" width="40" height="40" as="geometry" />
        </mxCell>
        <mxCell id="hw99wDOu4LzE6iY33n7J-25" value="" style="curved=1;endArrow=classic;html=1;rounded=0;exitX=0;exitY=1;exitDx=0;exitDy=0;entryX=0;entryY=0;entryDx=0;entryDy=0;" parent="1" source="hw99wDOu4LzE6iY33n7J-22" target="hw99wDOu4LzE6iY33n7J-22" edge="1">
          <mxGeometry width="50" height="50" relative="1" as="geometry">
            <mxPoint x="372.5" y="340" as="sourcePoint" />
            <mxPoint x="422.5" y="290" as="targetPoint" />
            <Array as="points">
              <mxPoint x="552.5" y="320" />
            </Array>
          </mxGeometry>
        </mxCell>
        <mxCell id="hw99wDOu4LzE6iY33n7J-26" value="(Cualquiera)" style="text;html=1;align=center;verticalAlign=middle;whiteSpace=wrap;rounded=0;" parent="1" vertex="1">
          <mxGeometry x="572.5" y="340" width="40" height="10" as="geometry" />
        </mxCell>
        <mxCell id="hw99wDOu4LzE6iY33n7J-28" value="" style="ellipse;html=1;shape=endState;fillColor=#000000;strokeColor=#ff0000;" parent="1" vertex="1">
          <mxGeometry x="747.5" y="760" width="30" height="30" as="geometry" />
        </mxCell>
        <mxCell id="hw99wDOu4LzE6iY33n7J-31" value="" style="curved=1;endArrow=classic;html=1;rounded=0;exitX=0.5;exitY=1;exitDx=0;exitDy=0;entryX=0;entryY=0;entryDx=0;entryDy=0;" parent="1" source="hw99wDOu4LzE6iY33n7J-22" target="hw99wDOu4LzE6iY33n7J-28" edge="1">
          <mxGeometry width="50" height="50" relative="1" as="geometry">
            <mxPoint x="372.5" y="540" as="sourcePoint" />
            <mxPoint x="422.5" y="490" as="targetPoint" />
            <Array as="points">
              <mxPoint x="692.5" y="500" />
            </Array>
          </mxGeometry>
        </mxCell>
        <mxCell id="hw99wDOu4LzE6iY33n7J-32" value="&quot;" style="text;html=1;align=center;verticalAlign=middle;whiteSpace=wrap;rounded=0;" parent="1" vertex="1">
          <mxGeometry x="632.5" y="470" width="60" height="30" as="geometry" />
        </mxCell>
        <mxCell id="hw99wDOu4LzE6iY33n7J-33" value="" style="curved=1;endArrow=classic;html=1;rounded=0;exitX=0;exitY=1;exitDx=0;exitDy=0;entryX=0;entryY=0;entryDx=0;entryDy=0;" parent="1" source="hw99wDOu4LzE6iY33n7J-19" target="hw99wDOu4LzE6iY33n7J-19" edge="1">
          <mxGeometry width="50" height="50" relative="1" as="geometry">
            <mxPoint x="688.5" y="358" as="sourcePoint" />
            <mxPoint x="688.5" y="330" as="targetPoint" />
            <Array as="points">
              <mxPoint x="632.5" y="260" />
            </Array>
          </mxGeometry>
        </mxCell>
        <mxCell id="hw99wDOu4LzE6iY33n7J-34" value="[0-9]" style="text;html=1;align=center;verticalAlign=middle;whiteSpace=wrap;rounded=0;" parent="1" vertex="1">
          <mxGeometry x="642.5" y="270" width="40" height="10" as="geometry" />
        </mxCell>
        <mxCell id="hw99wDOu4LzE6iY33n7J-37" value="" style="curved=1;endArrow=classic;html=1;rounded=0;exitX=0.5;exitY=1;exitDx=0;exitDy=0;entryX=0.5;entryY=0;entryDx=0;entryDy=0;" parent="1" source="hw99wDOu4LzE6iY33n7J-19" target="hw99wDOu4LzE6iY33n7J-28" edge="1">
          <mxGeometry width="50" height="50" relative="1" as="geometry">
            <mxPoint x="502.5" y="430" as="sourcePoint" />
            <mxPoint x="552.5" y="380" as="targetPoint" />
            <Array as="points">
              <mxPoint x="692.5" y="410" />
              <mxPoint x="702.5" y="440" />
            </Array>
          </mxGeometry>
        </mxCell>
        <mxCell id="hw99wDOu4LzE6iY33n7J-38" value="(Enter)" style="text;html=1;align=center;verticalAlign=middle;whiteSpace=wrap;rounded=0;" parent="1" vertex="1">
          <mxGeometry x="732.5" y="560" width="45" height="20" as="geometry" />
        </mxCell>
        <mxCell id="hw99wDOu4LzE6iY33n7J-39" value="q9" style="ellipse;whiteSpace=wrap;html=1;aspect=fixed;" parent="1" vertex="1">
          <mxGeometry x="762.5" y="290" width="40" height="40" as="geometry" />
        </mxCell>
        <mxCell id="hw99wDOu4LzE6iY33n7J-42" value="" style="curved=1;endArrow=classic;html=1;rounded=0;exitX=0.5;exitY=1;exitDx=0;exitDy=0;entryX=1;entryY=0;entryDx=0;entryDy=0;" parent="1" source="hw99wDOu4LzE6iY33n7J-39" target="hw99wDOu4LzE6iY33n7J-28" edge="1">
          <mxGeometry width="50" height="50" relative="1" as="geometry">
            <mxPoint x="482.5" y="570" as="sourcePoint" />
            <mxPoint x="532.5" y="520" as="targetPoint" />
            <Array as="points">
              <mxPoint x="772.5" y="460" />
              <mxPoint x="792.5" y="510" />
            </Array>
          </mxGeometry>
        </mxCell>
        <mxCell id="hw99wDOu4LzE6iY33n7J-43" value="(Enter)" style="text;html=1;align=center;verticalAlign=middle;whiteSpace=wrap;rounded=0;" parent="1" vertex="1">
          <mxGeometry x="740" y="490" width="45" height="20" as="geometry" />
        </mxCell>
        <mxCell id="hw99wDOu4LzE6iY33n7J-44" value="Error" style="ellipse;whiteSpace=wrap;html=1;aspect=fixed;" parent="1" vertex="1">
          <mxGeometry x="376.5" y="333.94" width="40" height="40" as="geometry" />
        </mxCell>
        <mxCell id="hw99wDOu4LzE6iY33n7J-46" value="(Otro)" style="text;html=1;align=center;verticalAlign=middle;whiteSpace=wrap;rounded=0;" parent="1" vertex="1">
          <mxGeometry x="342.5" y="200" width="60" height="30" as="geometry" />
        </mxCell>
        <mxCell id="hw99wDOu4LzE6iY33n7J-49" value="(Otro)" style="text;html=1;align=center;verticalAlign=middle;whiteSpace=wrap;rounded=0;" parent="1" vertex="1">
          <mxGeometry x="396.5" y="200" width="60" height="30" as="geometry" />
        </mxCell>
        <mxCell id="hw99wDOu4LzE6iY33n7J-51" value="(Otro)" style="text;html=1;align=center;verticalAlign=middle;whiteSpace=wrap;rounded=0;" parent="1" vertex="1">
          <mxGeometry x="290" y="230" width="60" height="30" as="geometry" />
        </mxCell>
        <mxCell id="hw99wDOu4LzE6iY33n7J-54" value="(Otro)" style="text;html=1;align=center;verticalAlign=middle;whiteSpace=wrap;rounded=0;" parent="1" vertex="1">
          <mxGeometry x="502.5" y="220" width="60" height="30" as="geometry" />
        </mxCell>
        <mxCell id="hw99wDOu4LzE6iY33n7J-56" value="" style="ellipse;html=1;shape=startState;fillColor=#000000;strokeColor=#ff0000;" parent="1" vertex="1">
          <mxGeometry x="42.5" y="110" width="30" height="30" as="geometry" />
        </mxCell>
        <mxCell id="hw99wDOu4LzE6iY33n7J-57" value="" style="edgeStyle=orthogonalEdgeStyle;html=1;verticalAlign=bottom;endArrow=open;endSize=8;strokeColor=#ff0000;rounded=0;entryX=0.196;entryY=0.111;entryDx=0;entryDy=0;entryPerimeter=0;exitX=0.144;exitY=0.424;exitDx=0;exitDy=0;exitPerimeter=0;" parent="1" source="hw99wDOu4LzE6iY33n7J-56" target="hw99wDOu4LzE6iY33n7J-1" edge="1">
          <mxGeometry relative="1" as="geometry">
            <mxPoint x="-2.5" y="200" as="targetPoint" />
            <Array as="points">
              <mxPoint x="46.5" y="124" />
              <mxPoint x="40.5" y="124" />
            </Array>
          </mxGeometry>
        </mxCell>
        <mxCell id="hw99wDOu4LzE6iY33n7J-60" value="(Otro)" style="text;html=1;align=center;verticalAlign=middle;whiteSpace=wrap;rounded=0;" parent="1" vertex="1">
          <mxGeometry x="432.5" y="240" width="60" height="30" as="geometry" />
        </mxCell>
        <mxCell id="hw99wDOu4LzE6iY33n7J-61" value="" style="curved=1;endArrow=classic;html=1;rounded=0;exitX=0.5;exitY=1;exitDx=0;exitDy=0;entryX=0;entryY=0;entryDx=0;entryDy=0;" parent="1" source="hw99wDOu4LzE6iY33n7J-2" target="hw99wDOu4LzE6iY33n7J-44" edge="1">
          <mxGeometry width="50" height="50" relative="1" as="geometry">
            <mxPoint x="622.5" y="410" as="sourcePoint" />
            <mxPoint x="672.5" y="360" as="targetPoint" />
            <Array as="points">
              <mxPoint x="312.5" y="250" />
            </Array>
          </mxGeometry>
        </mxCell>
        <mxCell id="hw99wDOu4LzE6iY33n7J-62" value="" style="curved=1;endArrow=classic;html=1;rounded=0;exitX=0.5;exitY=1;exitDx=0;exitDy=0;entryX=0.33;entryY=0.015;entryDx=0;entryDy=0;entryPerimeter=0;" parent="1" source="hw99wDOu4LzE6iY33n7J-5" target="hw99wDOu4LzE6iY33n7J-44" edge="1">
          <mxGeometry width="50" height="50" relative="1" as="geometry">
            <mxPoint x="622.5" y="410" as="sourcePoint" />
            <mxPoint x="672.5" y="360" as="targetPoint" />
            <Array as="points">
              <mxPoint x="372.5" y="270" />
            </Array>
          </mxGeometry>
        </mxCell>
        <mxCell id="hw99wDOu4LzE6iY33n7J-63" value="" style="curved=1;endArrow=classic;html=1;rounded=0;exitX=0.5;exitY=1;exitDx=0;exitDy=0;entryX=0.5;entryY=0;entryDx=0;entryDy=0;" parent="1" source="hw99wDOu4LzE6iY33n7J-8" target="hw99wDOu4LzE6iY33n7J-44" edge="1">
          <mxGeometry width="50" height="50" relative="1" as="geometry">
            <mxPoint x="422.5" y="270" as="sourcePoint" />
            <mxPoint x="472.5" y="220" as="targetPoint" />
            <Array as="points">
              <mxPoint x="452.5" y="240" />
              <mxPoint x="422.5" y="220" />
            </Array>
          </mxGeometry>
        </mxCell>
        <mxCell id="hw99wDOu4LzE6iY33n7J-64" value="" style="curved=1;endArrow=classic;html=1;rounded=0;exitX=0.5;exitY=1;exitDx=0;exitDy=0;entryX=1;entryY=0;entryDx=0;entryDy=0;" parent="1" source="hw99wDOu4LzE6iY33n7J-13" target="hw99wDOu4LzE6iY33n7J-44" edge="1">
          <mxGeometry width="50" height="50" relative="1" as="geometry">
            <mxPoint x="502.5" y="280" as="sourcePoint" />
            <mxPoint x="552.5" y="230" as="targetPoint" />
            <Array as="points">
              <mxPoint x="512.5" y="210" />
              <mxPoint x="502.5" y="230" />
            </Array>
          </mxGeometry>
        </mxCell>
        <mxCell id="hw99wDOu4LzE6iY33n7J-65" value="" style="curved=1;endArrow=classic;html=1;rounded=0;exitX=0.02;exitY=0.685;exitDx=0;exitDy=0;exitPerimeter=0;entryX=1;entryY=0.5;entryDx=0;entryDy=0;" parent="1" source="hw99wDOu4LzE6iY33n7J-16" target="hw99wDOu4LzE6iY33n7J-44" edge="1">
          <mxGeometry width="50" height="50" relative="1" as="geometry">
            <mxPoint x="522.5" y="320" as="sourcePoint" />
            <mxPoint x="572.5" y="270" as="targetPoint" />
            <Array as="points">
              <mxPoint x="552.5" y="240" />
              <mxPoint x="522.5" y="270" />
            </Array>
          </mxGeometry>
        </mxCell>
        <mxCell id="hw99wDOu4LzE6iY33n7J-67" value="" style="curved=1;endArrow=classic;html=1;rounded=0;exitX=0;exitY=1;exitDx=0;exitDy=0;entryX=0.91;entryY=0.675;entryDx=0;entryDy=0;entryPerimeter=0;" parent="1" source="hw99wDOu4LzE6iY33n7J-19" target="hw99wDOu4LzE6iY33n7J-44" edge="1">
          <mxGeometry width="50" height="50" relative="1" as="geometry">
            <mxPoint x="552.5" y="430" as="sourcePoint" />
            <mxPoint x="602.5" y="380" as="targetPoint" />
            <Array as="points">
              <mxPoint x="652.5" y="370" />
              <mxPoint x="582.5" y="380" />
              <mxPoint x="532.5" y="360" />
            </Array>
          </mxGeometry>
        </mxCell>
        <mxCell id="hw99wDOu4LzE6iY33n7J-68" value="(Otro)" style="text;html=1;align=center;verticalAlign=middle;whiteSpace=wrap;rounded=0;" parent="1" vertex="1">
          <mxGeometry x="462.5" y="330" width="60" height="30" as="geometry" />
        </mxCell>
        <mxCell id="hw99wDOu4LzE6iY33n7J-69" value="" style="curved=1;endArrow=classic;html=1;rounded=0;exitX=0;exitY=1;exitDx=0;exitDy=0;entryX=1;entryY=1;entryDx=0;entryDy=0;" parent="1" source="hw99wDOu4LzE6iY33n7J-39" target="hw99wDOu4LzE6iY33n7J-44" edge="1">
          <mxGeometry width="50" height="50" relative="1" as="geometry">
            <mxPoint x="552.5" y="450" as="sourcePoint" />
            <mxPoint x="602.5" y="400" as="targetPoint" />
            <Array as="points">
              <mxPoint x="632.5" y="400" />
              <mxPoint x="552.5" y="400" />
            </Array>
          </mxGeometry>
        </mxCell>
        <mxCell id="hw99wDOu4LzE6iY33n7J-70" value="(Otro)" style="text;html=1;align=center;verticalAlign=middle;whiteSpace=wrap;rounded=0;" parent="1" vertex="1">
          <mxGeometry x="522.5" y="390" width="60" height="30" as="geometry" />
        </mxCell>
        <mxCell id="hw99wDOu4LzE6iY33n7J-71" value="q10" style="ellipse;whiteSpace=wrap;html=1;aspect=fixed;" parent="1" vertex="1">
          <mxGeometry x="110" y="278.94" width="40" height="40" as="geometry" />
        </mxCell>
        <mxCell id="hw99wDOu4LzE6iY33n7J-72" value="" style="curved=1;endArrow=classic;html=1;rounded=0;entryX=0;entryY=0;entryDx=0;entryDy=0;exitX=1;exitY=1;exitDx=0;exitDy=0;" parent="1" source="hw99wDOu4LzE6iY33n7J-1" target="hw99wDOu4LzE6iY33n7J-71" edge="1">
          <mxGeometry width="50" height="50" relative="1" as="geometry">
            <mxPoint x="52.5" y="280" as="sourcePoint" />
            <mxPoint x="102.5" y="230" as="targetPoint" />
            <Array as="points">
              <mxPoint x="92.5" y="210" />
              <mxPoint x="112.5" y="200" />
            </Array>
          </mxGeometry>
        </mxCell>
        <mxCell id="hw99wDOu4LzE6iY33n7J-73" value="&lt;span style=&quot;font-size:12.0pt;line-height:&lt;br/&gt;107%;font-family:&amp;quot;MS Gothic&amp;quot;;mso-ascii-font-family:Arial;mso-hansi-font-family:&lt;br/&gt;Arial;mso-bidi-font-family:Arial;mso-ansi-language:ES-MX;mso-fareast-language:&lt;br/&gt;EN-US;mso-bidi-language:AR-SA&quot; lang=&quot;EN-US&quot;&gt;いんさつ&lt;/span&gt;" style="edgeLabel;html=1;align=center;verticalAlign=middle;resizable=0;points=[];" parent="hw99wDOu4LzE6iY33n7J-72" vertex="1" connectable="0">
          <mxGeometry x="-0.3585" y="1" relative="1" as="geometry">
            <mxPoint as="offset" />
          </mxGeometry>
        </mxCell>
        <mxCell id="hw99wDOu4LzE6iY33n7J-88" style="edgeStyle=orthogonalEdgeStyle;rounded=0;orthogonalLoop=1;jettySize=auto;html=1;" parent="1" source="hw99wDOu4LzE6iY33n7J-74" target="hw99wDOu4LzE6iY33n7J-87" edge="1">
          <mxGeometry relative="1" as="geometry" />
        </mxCell>
        <mxCell id="hw99wDOu4LzE6iY33n7J-89" value="(Variable)" style="edgeLabel;html=1;align=center;verticalAlign=middle;resizable=0;points=[];" parent="hw99wDOu4LzE6iY33n7J-88" vertex="1" connectable="0">
          <mxGeometry x="-0.604" y="2" relative="1" as="geometry">
            <mxPoint x="-10" as="offset" />
          </mxGeometry>
        </mxCell>
        <mxCell id="hw99wDOu4LzE6iY33n7J-74" value="q11" style="ellipse;whiteSpace=wrap;html=1;aspect=fixed;" parent="1" vertex="1">
          <mxGeometry x="160" y="363.94" width="40" height="40" as="geometry" />
        </mxCell>
        <mxCell id="hw99wDOu4LzE6iY33n7J-75" value="" style="curved=1;endArrow=classic;html=1;rounded=0;entryX=0.5;entryY=0;entryDx=0;entryDy=0;exitX=0.5;exitY=1;exitDx=0;exitDy=0;" parent="1" source="hw99wDOu4LzE6iY33n7J-71" target="hw99wDOu4LzE6iY33n7J-74" edge="1">
          <mxGeometry width="50" height="50" relative="1" as="geometry">
            <mxPoint x="100" y="428.94" as="sourcePoint" />
            <mxPoint x="150" y="378.94" as="targetPoint" />
            <Array as="points">
              <mxPoint x="150" y="343.94" />
              <mxPoint x="180" y="343.94" />
            </Array>
          </mxGeometry>
        </mxCell>
        <mxCell id="hw99wDOu4LzE6iY33n7J-76" value="(Espacio)" style="edgeLabel;html=1;align=center;verticalAlign=middle;resizable=0;points=[];" parent="1" vertex="1" connectable="0">
          <mxGeometry x="180" y="323.94" as="geometry" />
        </mxCell>
        <mxCell id="hw99wDOu4LzE6iY33n7J-77" value="q12" style="ellipse;whiteSpace=wrap;html=1;aspect=fixed;" parent="1" vertex="1">
          <mxGeometry x="250" y="423.94" width="40" height="40" as="geometry" />
        </mxCell>
        <mxCell id="hw99wDOu4LzE6iY33n7J-79" style="edgeStyle=orthogonalEdgeStyle;rounded=0;orthogonalLoop=1;jettySize=auto;html=1;entryX=0.141;entryY=0.171;entryDx=0;entryDy=0;entryPerimeter=0;" parent="1" source="hw99wDOu4LzE6iY33n7J-74" target="hw99wDOu4LzE6iY33n7J-77" edge="1">
          <mxGeometry relative="1" as="geometry" />
        </mxCell>
        <mxCell id="hw99wDOu4LzE6iY33n7J-80" value="&quot;" style="edgeLabel;html=1;align=center;verticalAlign=middle;resizable=0;points=[];" parent="hw99wDOu4LzE6iY33n7J-79" vertex="1" connectable="0">
          <mxGeometry x="-0.3853" y="-2" relative="1" as="geometry">
            <mxPoint x="-2" y="8" as="offset" />
          </mxGeometry>
        </mxCell>
        <mxCell id="hw99wDOu4LzE6iY33n7J-81" value="" style="curved=1;endArrow=classic;html=1;rounded=0;entryX=0.75;entryY=0;entryDx=0;entryDy=0;entryPerimeter=0;" parent="1" target="hw99wDOu4LzE6iY33n7J-77" edge="1">
          <mxGeometry width="50" height="50" relative="1" as="geometry">
            <mxPoint x="288" y="448.94" as="sourcePoint" />
            <mxPoint x="354" y="433.94" as="targetPoint" />
            <Array as="points">
              <mxPoint x="350" y="433.94" />
              <mxPoint x="304" y="413.94" />
            </Array>
          </mxGeometry>
        </mxCell>
        <mxCell id="hw99wDOu4LzE6iY33n7J-82" value="(Cualquiera)" style="text;html=1;align=center;verticalAlign=middle;whiteSpace=wrap;rounded=0;" parent="1" vertex="1">
          <mxGeometry x="292.5" y="397.88" width="70" height="26.06" as="geometry" />
        </mxCell>
        <mxCell id="hw99wDOu4LzE6iY33n7J-84" value="" style="curved=1;endArrow=classic;html=1;rounded=0;exitX=1;exitY=1;exitDx=0;exitDy=0;entryX=0;entryY=0.5;entryDx=0;entryDy=0;" parent="1" source="hw99wDOu4LzE6iY33n7J-77" target="hw99wDOu4LzE6iY33n7J-28" edge="1">
          <mxGeometry width="50" height="50" relative="1" as="geometry">
            <mxPoint x="362.5" y="570" as="sourcePoint" />
            <mxPoint x="412.5" y="520" as="targetPoint" />
            <Array as="points">
              <mxPoint x="412.5" y="420" />
              <mxPoint x="562.5" y="450" />
              <mxPoint x="652.5" y="620" />
            </Array>
          </mxGeometry>
        </mxCell>
        <mxCell id="hw99wDOu4LzE6iY33n7J-86" value="&quot;" style="edgeLabel;html=1;align=center;verticalAlign=middle;resizable=0;points=[];" parent="1" vertex="1" connectable="0">
          <mxGeometry x="542.5" y="450" as="geometry" />
        </mxCell>
        <mxCell id="hw99wDOu4LzE6iY33n7J-87" value="q13" style="ellipse;whiteSpace=wrap;html=1;aspect=fixed;" parent="1" vertex="1">
          <mxGeometry x="200" y="463.94" width="40" height="40" as="geometry" />
        </mxCell>
        <mxCell id="hw99wDOu4LzE6iY33n7J-90" value="" style="curved=1;endArrow=classic;html=1;rounded=0;exitX=1;exitY=0.5;exitDx=0;exitDy=0;entryX=0;entryY=1;entryDx=0;entryDy=0;" parent="1" source="hw99wDOu4LzE6iY33n7J-87" target="hw99wDOu4LzE6iY33n7J-28" edge="1">
          <mxGeometry width="50" height="50" relative="1" as="geometry">
            <mxPoint x="362.5" y="570" as="sourcePoint" />
            <mxPoint x="412.5" y="520" as="targetPoint" />
            <Array as="points">
              <mxPoint x="302.5" y="470" />
              <mxPoint x="502.5" y="460" />
            </Array>
          </mxGeometry>
        </mxCell>
        <mxCell id="hw99wDOu4LzE6iY33n7J-91" value="(Enter)" style="text;html=1;align=center;verticalAlign=middle;whiteSpace=wrap;rounded=0;" parent="1" vertex="1">
          <mxGeometry x="470" y="470" width="45" height="20" as="geometry" />
        </mxCell>
        <mxCell id="hw99wDOu4LzE6iY33n7J-92" value="" style="curved=1;endArrow=classic;html=1;rounded=0;entryX=0;entryY=0.5;entryDx=0;entryDy=0;exitX=1;exitY=0.5;exitDx=0;exitDy=0;" parent="1" source="hw99wDOu4LzE6iY33n7J-71" target="hw99wDOu4LzE6iY33n7J-44" edge="1">
          <mxGeometry width="50" height="50" relative="1" as="geometry">
            <mxPoint x="210" y="368.94" as="sourcePoint" />
            <mxPoint x="344" y="403.94" as="targetPoint" />
            <Array as="points">
              <mxPoint x="230" y="293.94" />
            </Array>
          </mxGeometry>
        </mxCell>
        <mxCell id="hw99wDOu4LzE6iY33n7J-93" value="(Otro)" style="text;html=1;align=center;verticalAlign=middle;whiteSpace=wrap;rounded=0;" parent="1" vertex="1">
          <mxGeometry x="160" y="273.94" width="60" height="30" as="geometry" />
        </mxCell>
        <mxCell id="hw99wDOu4LzE6iY33n7J-94" value="" style="curved=1;endArrow=classic;html=1;rounded=0;entryX=0;entryY=1;entryDx=0;entryDy=0;exitX=1;exitY=0;exitDx=0;exitDy=0;" parent="1" source="hw99wDOu4LzE6iY33n7J-74" target="hw99wDOu4LzE6iY33n7J-44" edge="1">
          <mxGeometry width="50" height="50" relative="1" as="geometry">
            <mxPoint x="220" y="408.94" as="sourcePoint" />
            <mxPoint x="349.85786437626894" y="418.08213562373106" as="targetPoint" />
            <Array as="points">
              <mxPoint x="220" y="369.94" />
              <mxPoint x="260" y="353.94" />
            </Array>
          </mxGeometry>
        </mxCell>
        <mxCell id="hw99wDOu4LzE6iY33n7J-95" value="(Otro)" style="text;html=1;align=center;verticalAlign=middle;whiteSpace=wrap;rounded=0;" parent="1" vertex="1">
          <mxGeometry x="190" y="333.94" width="60" height="30" as="geometry" />
        </mxCell>
        <mxCell id="hw99wDOu4LzE6iY33n7J-97" value="(Otro)" style="text;html=1;align=center;verticalAlign=middle;whiteSpace=wrap;rounded=0;" parent="1" vertex="1">
          <mxGeometry x="297.5" y="510" width="60" height="30" as="geometry" />
        </mxCell>
        <mxCell id="hw99wDOu4LzE6iY33n7J-98" value="q14" style="ellipse;whiteSpace=wrap;html=1;aspect=fixed;" parent="1" vertex="1">
          <mxGeometry x="25" y="370" width="40" height="40" as="geometry" />
        </mxCell>
        <mxCell id="hw99wDOu4LzE6iY33n7J-99" value="" style="curved=1;endArrow=classic;html=1;rounded=0;entryX=0;entryY=0;entryDx=0;entryDy=0;exitX=0.346;exitY=1.041;exitDx=0;exitDy=0;exitPerimeter=0;" parent="1" source="hw99wDOu4LzE6iY33n7J-1" target="hw99wDOu4LzE6iY33n7J-98" edge="1">
          <mxGeometry width="50" height="50" relative="1" as="geometry">
            <mxPoint x="12.5" y="290" as="sourcePoint" />
            <mxPoint x="62.5" y="240" as="targetPoint" />
            <Array as="points">
              <mxPoint x="52.5" y="230" />
            </Array>
          </mxGeometry>
        </mxCell>
        <mxCell id="hw99wDOu4LzE6iY33n7J-100" value="&lt;span style=&quot;font-size:12.0pt;line-height:&lt;br/&gt;107%;font-family:&amp;quot;MS Gothic&amp;quot;;mso-ascii-font-family:Arial;mso-hansi-font-family:&lt;br/&gt;Arial;mso-bidi-font-family:Arial;mso-ansi-language:ES-MX;mso-fareast-language:&lt;br/&gt;EN-US;mso-bidi-language:AR-SA&quot; lang=&quot;EN-US&quot;&gt;もし&lt;/span&gt;" style="edgeLabel;html=1;align=center;verticalAlign=middle;resizable=0;points=[];" parent="hw99wDOu4LzE6iY33n7J-99" vertex="1" connectable="0">
          <mxGeometry x="0.0049" y="3" relative="1" as="geometry">
            <mxPoint as="offset" />
          </mxGeometry>
        </mxCell>
        <mxCell id="hw99wDOu4LzE6iY33n7J-101" value="q15" style="ellipse;whiteSpace=wrap;html=1;aspect=fixed;" parent="1" vertex="1">
          <mxGeometry x="55" y="435" width="40" height="40" as="geometry" />
        </mxCell>
        <mxCell id="hw99wDOu4LzE6iY33n7J-102" value="" style="curved=1;endArrow=classic;html=1;rounded=0;entryX=0.5;entryY=0;entryDx=0;entryDy=0;exitX=0.5;exitY=1;exitDx=0;exitDy=0;" parent="1" source="hw99wDOu4LzE6iY33n7J-98" target="hw99wDOu4LzE6iY33n7J-101" edge="1">
          <mxGeometry width="50" height="50" relative="1" as="geometry">
            <mxPoint x="-25" y="485" as="sourcePoint" />
            <mxPoint x="25" y="435" as="targetPoint" />
            <Array as="points">
              <mxPoint x="45" y="430" />
              <mxPoint x="75" y="420" />
            </Array>
          </mxGeometry>
        </mxCell>
        <mxCell id="hw99wDOu4LzE6iY33n7J-103" value="(Espacio)" style="edgeLabel;html=1;align=center;verticalAlign=middle;resizable=0;points=[];" parent="1" vertex="1" connectable="0">
          <mxGeometry x="32.5" y="423.94" as="geometry" />
        </mxCell>
        <mxCell id="hw99wDOu4LzE6iY33n7J-109" style="edgeStyle=orthogonalEdgeStyle;rounded=0;orthogonalLoop=1;jettySize=auto;html=1;entryX=0;entryY=0.5;entryDx=0;entryDy=0;exitX=0.5;exitY=1;exitDx=0;exitDy=0;" parent="1" source="hw99wDOu4LzE6iY33n7J-104" target="hw99wDOu4LzE6iY33n7J-108" edge="1">
          <mxGeometry relative="1" as="geometry" />
        </mxCell>
        <mxCell id="hw99wDOu4LzE6iY33n7J-113" value="&lt;span style=&quot;font-size: 12px; background-color: rgb(236, 236, 236);&quot;&gt;=, ==, !=,&lt;/span&gt;&lt;div style=&quot;font-size: 12px; background-color: rgb(236, 236, 236);&quot;&gt;&amp;lt;, &amp;gt;&lt;/div&gt;" style="edgeLabel;html=1;align=center;verticalAlign=middle;resizable=0;points=[];" parent="hw99wDOu4LzE6iY33n7J-109" vertex="1" connectable="0">
          <mxGeometry x="-0.6014" y="1" relative="1" as="geometry">
            <mxPoint as="offset" />
          </mxGeometry>
        </mxCell>
        <mxCell id="hw99wDOu4LzE6iY33n7J-104" value="q16" style="ellipse;whiteSpace=wrap;html=1;aspect=fixed;" parent="1" vertex="1">
          <mxGeometry x="72.5" y="520" width="40" height="40" as="geometry" />
        </mxCell>
        <mxCell id="hw99wDOu4LzE6iY33n7J-105" value="" style="curved=1;endArrow=classic;html=1;rounded=0;entryX=0.5;entryY=0;entryDx=0;entryDy=0;" parent="1" source="hw99wDOu4LzE6iY33n7J-101" target="hw99wDOu4LzE6iY33n7J-104" edge="1">
          <mxGeometry width="50" height="50" relative="1" as="geometry">
            <mxPoint x="35" y="540" as="sourcePoint" />
            <mxPoint x="85" y="490" as="targetPoint" />
            <Array as="points">
              <mxPoint x="115" y="490" />
            </Array>
          </mxGeometry>
        </mxCell>
        <mxCell id="hw99wDOu4LzE6iY33n7J-107" value="[0-9]+,&lt;div&gt;(Variable)&lt;/div&gt;" style="edgeLabel;html=1;align=center;verticalAlign=middle;resizable=0;points=[];" parent="hw99wDOu4LzE6iY33n7J-105" vertex="1" connectable="0">
          <mxGeometry x="-0.2491" y="-3" relative="1" as="geometry">
            <mxPoint as="offset" />
          </mxGeometry>
        </mxCell>
        <mxCell id="hw99wDOu4LzE6iY33n7J-108" value="q17" style="ellipse;whiteSpace=wrap;html=1;aspect=fixed;" parent="1" vertex="1">
          <mxGeometry x="52.5" y="610" width="40" height="40" as="geometry" />
        </mxCell>
        <mxCell id="hw99wDOu4LzE6iY33n7J-110" value="(Espacio)" style="edgeLabel;html=1;align=center;verticalAlign=middle;resizable=0;points=[];" parent="1" vertex="1" connectable="0">
          <mxGeometry x="32.5" y="520" as="geometry" />
        </mxCell>
        <mxCell id="hw99wDOu4LzE6iY33n7J-111" value="" style="curved=1;endArrow=classic;html=1;rounded=0;entryX=0.044;entryY=0.745;entryDx=0;entryDy=0;entryPerimeter=0;exitX=0;exitY=0;exitDx=0;exitDy=0;" parent="1" source="hw99wDOu4LzE6iY33n7J-104" target="hw99wDOu4LzE6iY33n7J-104" edge="1">
          <mxGeometry width="50" height="50" relative="1" as="geometry">
            <mxPoint x="-7.5" y="575" as="sourcePoint" />
            <mxPoint x="42.5" y="525" as="targetPoint" />
            <Array as="points">
              <mxPoint x="72.5" y="510" />
              <mxPoint x="42.5" y="540" />
            </Array>
          </mxGeometry>
        </mxCell>
        <mxCell id="uBL-puQFM2lxo3wvv0bV-1" value="" style="curved=1;endArrow=classic;html=1;rounded=0;exitX=0;exitY=1;exitDx=0;exitDy=0;entryX=1;entryY=1;entryDx=0;entryDy=0;" edge="1" parent="1" source="hw99wDOu4LzE6iY33n7J-108" target="hw99wDOu4LzE6iY33n7J-108">
          <mxGeometry width="50" height="50" relative="1" as="geometry">
            <mxPoint x="86.5" y="720" as="sourcePoint" />
            <mxPoint x="136.5" y="670" as="targetPoint" />
            <Array as="points">
              <mxPoint x="42.5" y="670" />
              <mxPoint x="86.5" y="670" />
            </Array>
          </mxGeometry>
        </mxCell>
        <mxCell id="uBL-puQFM2lxo3wvv0bV-2" value="(Espacio)" style="edgeLabel;html=1;align=center;verticalAlign=middle;resizable=0;points=[];" vertex="1" connectable="0" parent="1">
          <mxGeometry x="42.5" y="680" as="geometry" />
        </mxCell>
        <mxCell id="uBL-puQFM2lxo3wvv0bV-3" value="q18" style="ellipse;whiteSpace=wrap;html=1;aspect=fixed;" vertex="1" parent="1">
          <mxGeometry x="152.5" y="650" width="40" height="40" as="geometry" />
        </mxCell>
        <mxCell id="uBL-puQFM2lxo3wvv0bV-4" value="" style="curved=1;endArrow=classic;html=1;rounded=0;entryX=0.5;entryY=0;entryDx=0;entryDy=0;exitX=1;exitY=0.5;exitDx=0;exitDy=0;" edge="1" parent="1" source="hw99wDOu4LzE6iY33n7J-108" target="uBL-puQFM2lxo3wvv0bV-3">
          <mxGeometry width="50" height="50" relative="1" as="geometry">
            <mxPoint x="106.5" y="680" as="sourcePoint" />
            <mxPoint x="156.5" y="630" as="targetPoint" />
            <Array as="points">
              <mxPoint x="122.5" y="620" />
            </Array>
          </mxGeometry>
        </mxCell>
        <mxCell id="uBL-puQFM2lxo3wvv0bV-5" value="[0-9]+,&lt;div&gt;(Variable)&lt;/div&gt;" style="edgeLabel;html=1;align=center;verticalAlign=middle;resizable=0;points=[];" vertex="1" connectable="0" parent="1">
          <mxGeometry x="122.5" y="630" as="geometry" />
        </mxCell>
        <mxCell id="uBL-puQFM2lxo3wvv0bV-6" value="" style="curved=1;endArrow=classic;html=1;rounded=0;exitX=0;exitY=0.5;exitDx=0;exitDy=0;entryX=0.5;entryY=1;entryDx=0;entryDy=0;" edge="1" parent="1" source="uBL-puQFM2lxo3wvv0bV-3" target="uBL-puQFM2lxo3wvv0bV-3">
          <mxGeometry width="50" height="50" relative="1" as="geometry">
            <mxPoint x="148.5" y="694" as="sourcePoint" />
            <mxPoint x="176.5" y="694" as="targetPoint" />
            <Array as="points">
              <mxPoint x="132.5" y="670" />
              <mxPoint x="176.5" y="720" />
            </Array>
          </mxGeometry>
        </mxCell>
        <mxCell id="uBL-puQFM2lxo3wvv0bV-7" value="(Espacio)" style="edgeLabel;html=1;align=center;verticalAlign=middle;resizable=0;points=[];" vertex="1" connectable="0" parent="1">
          <mxGeometry x="132.5" y="700" as="geometry" />
        </mxCell>
        <mxCell id="uBL-puQFM2lxo3wvv0bV-12" value="Error" style="ellipse;whiteSpace=wrap;html=1;aspect=fixed;" vertex="1" parent="1">
          <mxGeometry x="356.5" y="560" width="40" height="40" as="geometry" />
        </mxCell>
        <mxCell id="uBL-puQFM2lxo3wvv0bV-13" value="" style="curved=1;endArrow=classic;html=1;rounded=0;entryX=0;entryY=1;entryDx=0;entryDy=0;exitX=1;exitY=0.5;exitDx=0;exitDy=0;" edge="1" parent="1" source="uBL-puQFM2lxo3wvv0bV-3" target="hw99wDOu4LzE6iY33n7J-28">
          <mxGeometry width="50" height="50" relative="1" as="geometry">
            <mxPoint x="332.5" y="680" as="sourcePoint" />
            <mxPoint x="382.5" y="630" as="targetPoint" />
            <Array as="points">
              <mxPoint x="482.5" y="670" />
            </Array>
          </mxGeometry>
        </mxCell>
        <mxCell id="uBL-puQFM2lxo3wvv0bV-14" value="&lt;font style=&quot;font-size: 25px;&quot;&gt;:&lt;/font&gt;" style="edgeLabel;html=1;align=center;verticalAlign=middle;resizable=0;points=[];" vertex="1" connectable="0" parent="uBL-puQFM2lxo3wvv0bV-13">
          <mxGeometry x="-0.5086" y="-4" relative="1" as="geometry">
            <mxPoint y="21" as="offset" />
          </mxGeometry>
        </mxCell>
        <mxCell id="uBL-puQFM2lxo3wvv0bV-15" value="" style="curved=1;endArrow=classic;html=1;rounded=0;entryX=0.5;entryY=0;entryDx=0;entryDy=0;" edge="1" parent="1" source="hw99wDOu4LzE6iY33n7J-87" target="uBL-puQFM2lxo3wvv0bV-12">
          <mxGeometry width="50" height="50" relative="1" as="geometry">
            <mxPoint x="382.5" y="600" as="sourcePoint" />
            <mxPoint x="432.5" y="550" as="targetPoint" />
            <Array as="points">
              <mxPoint x="262.5" y="540" />
              <mxPoint x="352.5" y="530" />
            </Array>
          </mxGeometry>
        </mxCell>
        <mxCell id="uBL-puQFM2lxo3wvv0bV-16" value="" style="curved=1;endArrow=classic;html=1;rounded=0;entryX=0.308;entryY=0.038;entryDx=0;entryDy=0;exitX=1;exitY=0.5;exitDx=0;exitDy=0;entryPerimeter=0;" edge="1" parent="1" source="hw99wDOu4LzE6iY33n7J-98" target="uBL-puQFM2lxo3wvv0bV-12">
          <mxGeometry width="50" height="50" relative="1" as="geometry">
            <mxPoint x="182.5" y="590" as="sourcePoint" />
            <mxPoint x="232.5" y="540" as="targetPoint" />
            <Array as="points">
              <mxPoint x="172.5" y="430" />
              <mxPoint x="192.5" y="530" />
            </Array>
          </mxGeometry>
        </mxCell>
        <mxCell id="uBL-puQFM2lxo3wvv0bV-17" value="(Otro)" style="text;html=1;align=center;verticalAlign=middle;whiteSpace=wrap;rounded=0;" vertex="1" parent="1">
          <mxGeometry x="72.5" y="375" width="60" height="30" as="geometry" />
        </mxCell>
        <mxCell id="uBL-puQFM2lxo3wvv0bV-18" value="" style="curved=1;endArrow=classic;html=1;rounded=0;exitX=1;exitY=0;exitDx=0;exitDy=0;" edge="1" parent="1" source="hw99wDOu4LzE6iY33n7J-101">
          <mxGeometry width="50" height="50" relative="1" as="geometry">
            <mxPoint x="190" y="620" as="sourcePoint" />
            <mxPoint x="362.5" y="570" as="targetPoint" />
            <Array as="points">
              <mxPoint x="162.5" y="460" />
              <mxPoint x="222.5" y="580" />
            </Array>
          </mxGeometry>
        </mxCell>
        <mxCell id="uBL-puQFM2lxo3wvv0bV-19" value="(Otro)" style="text;html=1;align=center;verticalAlign=middle;whiteSpace=wrap;rounded=0;" vertex="1" parent="1">
          <mxGeometry x="95" y="423.94" width="60" height="30" as="geometry" />
        </mxCell>
        <mxCell id="uBL-puQFM2lxo3wvv0bV-20" value="" style="curved=1;endArrow=classic;html=1;rounded=0;entryX=0;entryY=0.5;entryDx=0;entryDy=0;exitX=1;exitY=0.5;exitDx=0;exitDy=0;" edge="1" parent="1" source="hw99wDOu4LzE6iY33n7J-104" target="uBL-puQFM2lxo3wvv0bV-12">
          <mxGeometry width="50" height="50" relative="1" as="geometry">
            <mxPoint x="195" y="640" as="sourcePoint" />
            <mxPoint x="245" y="590" as="targetPoint" />
            <Array as="points">
              <mxPoint x="172.5" y="500" />
              <mxPoint x="195" y="590" />
            </Array>
          </mxGeometry>
        </mxCell>
        <mxCell id="uBL-puQFM2lxo3wvv0bV-21" value="(Otro)" style="text;html=1;align=center;verticalAlign=middle;whiteSpace=wrap;rounded=0;" vertex="1" parent="1">
          <mxGeometry x="130" y="520" width="60" height="30" as="geometry" />
        </mxCell>
        <mxCell id="uBL-puQFM2lxo3wvv0bV-22" value="" style="curved=1;endArrow=classic;html=1;rounded=0;exitX=1;exitY=0;exitDx=0;exitDy=0;entryX=0.075;entryY=0.721;entryDx=0;entryDy=0;entryPerimeter=0;" edge="1" parent="1" source="hw99wDOu4LzE6iY33n7J-108" target="uBL-puQFM2lxo3wvv0bV-12">
          <mxGeometry width="50" height="50" relative="1" as="geometry">
            <mxPoint x="240" y="660" as="sourcePoint" />
            <mxPoint x="290" y="610" as="targetPoint" />
            <Array as="points">
              <mxPoint x="192.5" y="580" />
              <mxPoint x="240" y="610" />
            </Array>
          </mxGeometry>
        </mxCell>
        <mxCell id="uBL-puQFM2lxo3wvv0bV-23" value="(Otro)" style="text;html=1;align=center;verticalAlign=middle;whiteSpace=wrap;rounded=0;" vertex="1" parent="1">
          <mxGeometry x="130" y="565" width="60" height="30" as="geometry" />
        </mxCell>
        <mxCell id="uBL-puQFM2lxo3wvv0bV-24" value="" style="curved=1;endArrow=classic;html=1;rounded=0;entryX=0.308;entryY=0.921;entryDx=0;entryDy=0;entryPerimeter=0;exitX=1;exitY=0;exitDx=0;exitDy=0;" edge="1" parent="1" source="uBL-puQFM2lxo3wvv0bV-3" target="uBL-puQFM2lxo3wvv0bV-12">
          <mxGeometry width="50" height="50" relative="1" as="geometry">
            <mxPoint x="247.5" y="670" as="sourcePoint" />
            <mxPoint x="297.5" y="620" as="targetPoint" />
            <Array as="points">
              <mxPoint x="192.5" y="620" />
              <mxPoint x="247.5" y="620" />
            </Array>
          </mxGeometry>
        </mxCell>
      </root>
    </mxGraphModel>
  </diagram>
</mxfile>
